<?xml version="1.0" standalone="no"?>
<!DOCTYPE svg PUBLIC "-//W3C//DTD SVG 20010904//EN"
 "http://www.w3.org/TR/2001/REC-SVG-20010904/DTD/svg10.dtd">
<svg version="1.0" xmlns="http://www.w3.org/2000/svg"
 width="144.000000pt" height="144.000000pt" viewBox="0 0 144.000000 144.000000"
 preserveAspectRatio="xMidYMid meet">

<g transform="translate(0.000000,144.000000) scale(0.100000,-0.100000)"
fill="#000000" stroke="none">
<path d="M120 1052 l0 -209 28 -6 c15 -3 208 -29 430 -58 221 -29 402 -56 402
-59 0 -3 -192 -31 -426 -62 -235 -31 -428 -59 -430 -61 -3 -2 -3 -97 -2 -210
l3 -206 622 267 c343 147 623 269 623 272 0 3 -278 124 -617 269 -340 145
-621 266 -625 268 -5 2 -8 -90 -8 -205z"/>
</g>
</svg>
